<?xml version="1.0" standalone="no"?>
<!DOCTYPE svg PUBLIC "-//W3C//DTD SVG 20010904//EN"
 "http://www.w3.org/TR/2001/REC-SVG-20010904/DTD/svg10.dtd">
<svg version="1.0" xmlns="http://www.w3.org/2000/svg"
 width="1210.000000pt" height="1280.000000pt" viewBox="0 0 1210.000000 1280.000000"
 preserveAspectRatio="xMidYMid meet">
 
 
<metadata>
Created by potrace 1.15, written by Peter Selinger 2001-2017
</metadata>

<g transform="translate(0.000000,1280.000000) scale(0.100000,-0.100000)"
fill="#400000" stroke="none">

<path d="M6245 12771 c3 -5 40 -38 83 -72 77 -62 134 -93 232 -125 28 -9 49
-18 47 -20 -12 -12 -276 42 -517 106 -93 26 -213 27 -281 5 -32 -11 -71 -36
-110 -72 -75 -70 -100 -112 -33 -55 121 102 258 115 467 46 39 -13 59 -22 42
-19 -16 3 -73 8 -125 11 -131 9 -190 -8 -262 -77 -44 -43 -47 -47 -18 -29 64
39 104 53 168 58 75 5 192 -6 192 -19 0 -5 -7 -9 -15 -9 -44 0 -211 -66 -293
-115 -50 -31 -117 -65 -148 -76 -82 -28 -190 -25 -278 6 -39 13 -71 23 -73 21
-6 -6 91 -74 123 -87 16 -7 67 -15 114 -18 l85 -7 -59 -13 c-32 -7 -93 -11
-135 -9 -87 4 -157 32 -241 99 -28 22 -50 37 -50 34 0 -13 80 -113 119 -148
44 -39 66 -51 141 -72 l45 -13 -36 -1 c-61 -2 -136 28 -204 79 -71 54 -72 41
-2 -31 60 -63 118 -95 202 -112 79 -16 85 -13 -92 -52 -288 -64 -434 -136
-578 -285 l-60 -63 78 62 c72 56 205 129 267 146 14 4 -6 -12 -45 -36 -268
-163 -435 -364 -435 -522 0 -61 25 -128 65 -174 l34 -38 -26 53 c-29 60 -34
121 -13 173 15 38 81 142 86 136 2 -1 -6 -31 -16 -66 -23 -73 -26 -168 -6
-214 17 -42 68 -92 117 -117 54 -28 55 -25 8 18 -69 62 -86 130 -50 207 33 72
182 195 321 265 44 22 43 20 -45 -71 -139 -144 -166 -218 -126 -348 12 -39 23
-71 24 -71 2 0 3 33 3 73 -1 91 17 129 102 217 l63 65 -7 -45 c-10 -68 -60
-216 -101 -297 -44 -87 -120 -176 -177 -205 -51 -27 -128 -29 -176 -4 -19 10
-62 39 -95 65 -52 40 -57 42 -38 16 77 -105 115 -128 223 -135 l85 -5 -55 -20
c-32 -11 -82 -19 -120 -20 -107 0 -180 57 -240 187 l-20 43 6 -35 c19 -116 64
-202 127 -240 32 -20 92 -40 177 -59 41 -9 37 -10 -36 -7 -92 4 -150 25 -207
76 -60 52 -53 29 8 -29 140 -132 326 -151 559 -55 18 7 18 5 -3 -24 -40 -56
-94 -79 -241 -103 -209 -33 -278 -66 -318 -152 -37 -77 -38 -97 -3 -50 62 82
147 113 306 112 l100 0 -95 -28 c-115 -33 -169 -60 -203 -101 -37 -44 -44 -91
-21 -159 l19 -56 3 52 c4 64 34 97 106 117 52 15 216 31 216 21 0 -2 -22 -16
-48 -29 -104 -53 -150 -143 -139 -270 3 -37 0 -85 -9 -122 -37 -162 -36 -348
2 -484 39 -136 140 -282 262 -380 96 -76 114 -80 46 -9 -75 79 -114 136 -145
214 -20 52 -23 76 -22 185 0 72 7 155 16 195 l15 70 1 -120 c2 -166 14 -236
61 -330 42 -86 99 -158 177 -220 l48 -40 -41 50 c-169 205 -189 385 -77 694
33 93 60 149 49 106 -34 -140 -48 -248 -44 -345 3 -96 6 -111 40 -182 20 -42
54 -103 76 -135 56 -83 78 -130 92 -196 51 -247 -238 -367 -481 -201 l-51 36
41 -54 c22 -29 56 -64 76 -77 37 -25 121 -51 164 -51 49 0 9 -13 -81 -26 -189
-28 -378 -98 -457 -169 -103 -93 -96 -171 25 -285 73 -68 105 -82 44 -19 -67
69 -70 125 -10 167 61 41 123 54 389 77 77 6 72 -5 -9 -22 -114 -23 -160 -60
-146 -116 6 -27 83 -109 118 -128 20 -11 20 -10 -1 20 -12 17 -25 46 -28 65
-4 28 -1 39 20 60 37 36 111 54 302 71 176 15 247 31 327 71 117 59 171 143
172 266 1 85 9 83 25 -5 19 -103 -13 -190 -97 -269 -84 -79 -201 -129 -382
-163 l-75 -14 160 4 c170 4 262 19 366 59 35 13 73 27 84 31 44 15 -85 -88
-153 -122 -66 -33 -82 -37 -178 -41 -58 -3 -102 -8 -97 -12 4 -4 50 -13 101
-20 97 -12 191 -4 276 26 22 8 41 12 43 10 8 -7 -82 -78 -131 -103 -45 -23
-58 -25 -130 -20 -45 3 -92 8 -106 11 -14 4 4 -8 40 -26 58 -29 74 -33 150
-33 47 0 107 4 134 9 45 8 47 7 38 -10 -34 -62 -211 -264 -371 -425 -190 -190
-377 -347 -555 -467 l-101 -68 -137 -17 c-228 -30 -410 -91 -503 -169 -22 -19
-92 -70 -155 -113 -161 -110 -233 -169 -326 -267 -97 -103 -170 -237 -213
-393 l-28 -100 -39 -3 c-237 -20 -733 208 -998 460 -107 101 -352 242 -498
287 -122 37 -223 46 -313 28 -102 -21 -171 -57 -250 -130 -117 -107 -211 -273
-292 -517 -25 -74 -46 -136 -47 -137 0 -1 -41 3 -90 9 -171 18 -254 72 -328
213 -43 80 -46 77 -19 -16 25 -87 45 -126 95 -178 l41 -44 -55 29 c-30 16 -83
56 -117 90 -77 76 -93 122 -94 278 l-1 111 -14 -55 c-40 -162 -38 -294 8 -389
29 -62 127 -158 213 -209 73 -44 71 -51 -6 -28 -80 24 -146 64 -216 128 l-67
63 46 -61 c69 -90 176 -184 252 -222 65 -33 191 -73 269 -87 27 -5 38 -13 41
-29 3 -11 12 -61 21 -111 20 -107 70 -282 119 -420 41 -113 40 -115 -42 -115
-80 0 -241 -19 -298 -35 -116 -33 -181 -120 -190 -256 l-5 -74 21 55 c25 67
65 118 115 146 45 26 156 44 268 44 l82 -1 -50 -21 c-150 -64 -255 -168 -255
-255 0 -57 18 -91 76 -142 51 -45 69 -48 35 -6 -11 15 -23 42 -27 59 -21 116
133 211 423 260 31 5 35 2 74 -55 47 -69 83 -148 93 -199 l6 -36 -123 -17
c-308 -42 -460 -124 -541 -290 -24 -49 -58 -147 -51 -147 2 0 14 17 26 38 34
55 105 127 157 161 49 31 198 84 267 95 33 6 21 -3 -63 -45 -123 -61 -187
-120 -231 -211 -27 -59 -64 -168 -56 -168 2 0 17 24 33 54 84 148 208 232 426
286 158 40 150 41 142 -22 -11 -81 -39 -133 -112 -209 -37 -38 -64 -69 -60
-69 4 0 25 9 47 20 55 29 115 85 146 137 14 24 27 42 29 40 2 -2 -7 -44 -21
-93 -31 -104 -73 -188 -126 -248 l-38 -43 -151 43 c-83 24 -190 51 -237 59
-111 19 -272 19 -348 0 -85 -22 -189 -76 -262 -135 -69 -56 -85 -85 -26 -44
52 35 117 68 183 90 44 15 80 18 180 17 69 -1 150 -8 180 -16 l55 -13 -135 -7
c-216 -11 -327 -52 -436 -161 -55 -55 -154 -192 -154 -212 0 -4 17 12 37 37
69 83 138 140 212 177 65 32 86 37 159 41 46 2 112 -2 146 -9 64 -12 242 -70
311 -101 36 -16 37 -18 15 -22 -14 -3 -81 -10 -150 -16 -347 -31 -569 -128
-641 -279 -31 -65 -31 -174 -1 -262 20 -58 63 -144 47 -96 -22 70 -28 155 -15
202 22 78 92 141 209 187 102 41 132 43 54 4 -68 -35 -138 -100 -163 -153 -41
-84 -23 -213 46 -319 19 -31 24 -34 19 -15 -36 153 -26 212 50 278 55 49 129
67 275 67 69 0 157 -4 195 -9 l70 -10 -90 -8 c-193 -17 -297 -62 -342 -147
-18 -35 -23 -59 -22 -120 l0 -76 23 51 c46 100 137 137 288 117 46 -7 117 -23
158 -37 l75 -25 -75 5 c-98 8 -179 -8 -265 -51 -38 -20 -59 -33 -45 -30 241
53 343 46 587 -41 372 -133 558 -174 790 -174 237 0 397 54 562 189 67 55 175
201 232 314 59 119 62 123 44 65 -122 -402 -335 -594 -705 -637 -160 -19 -160
-20 5 -16 329 7 572 92 734 256 134 136 214 321 244 562 6 53 14 97 18 97 3 0
14 -37 23 -82 21 -106 21 -238 0 -309 -19 -64 -72 -173 -115 -235 -16 -24 -26
-44 -22 -44 4 0 15 11 23 24 8 12 43 64 77 114 110 164 149 299 140 490 -6
135 -35 239 -110 389 l-45 89 13 65 c19 85 18 238 0 318 -20 84 -75 187 -129
241 l-43 43 54 106 c90 182 126 347 123 571 -3 159 -2 169 9 150 5 -8 11 -51
14 -95 10 -133 55 -233 142 -315 l37 -35 -25 50 c-71 145 -81 267 -32 415 l29
85 13 -70 c7 -38 18 -86 24 -105 23 -69 198 -418 277 -552 45 -75 82 -142 82
-148 0 -29 67 -135 142 -225 88 -107 118 -148 118 -164 0 -5 -26 -52 -58 -103
-75 -120 -174 -296 -297 -528 -67 -125 -116 -204 -152 -244 -29 -33 -67 -87
-83 -119 -43 -85 -41 -134 9 -233 l39 -77 -40 -50 c-46 -59 -82 -128 -91 -174
-8 -41 20 -135 60 -200 16 -26 40 -75 53 -108 41 -105 155 -338 239 -490 58
-102 93 -180 118 -258 19 -61 86 -254 149 -430 63 -176 114 -333 114 -348 0
-44 21 -131 41 -171 26 -51 83 -104 133 -123 l42 -16 12 -88 c16 -120 31 -163
63 -178 65 -31 309 -43 419 -20 l55 12 -1 70 c0 60 -5 79 -34 133 -19 36 -57
85 -90 115 -51 48 -57 58 -63 104 -9 81 -37 123 -142 213 -164 140 -210 216
-325 545 -89 253 -137 413 -155 518 -16 85 -18 229 -7 307 l7 45 197 -265
c546 -736 605 -819 618 -879 27 -122 91 -220 168 -257 20 -10 63 -22 95 -28
l58 -11 25 -73 c34 -102 64 -146 113 -165 68 -28 207 -40 317 -27 83 9 164 32
164 47 0 2 -9 21 -19 42 -42 81 -170 222 -275 301 -45 34 -56 48 -56 71 0 56
-22 129 -51 168 -23 33 -51 51 -142 95 -103 49 -120 61 -192 137 -222 237
-391 490 -695 1045 -118 214 -140 261 -132 278 22 46 187 239 276 322 65 62
125 106 192 144 171 96 257 199 298 357 14 53 25 70 76 122 87 86 111 145 118
280 l5 107 69 59 c127 107 179 199 193 346 12 131 10 126 73 158 86 44 195
125 236 174 49 60 92 158 110 252 15 74 46 317 46 358 0 14 10 17 68 17 37 0
123 7 192 14 870 98 1581 656 2059 1616 48 96 105 219 126 272 l40 98 116 0
c201 0 288 44 403 203 24 34 237 254 473 488 410 407 607 589 639 589 24 0
323 -306 386 -395 93 -132 135 -219 148 -310 12 -81 40 -167 80 -244 l22 -43
-23 -43 c-21 -39 -22 -49 -13 -93 9 -47 9 -51 -17 -80 -74 -83 -58 -237 37
-342 74 -82 208 -157 259 -144 54 13 105 113 135 264 9 46 21 74 41 95 32 34
59 93 59 128 0 45 -30 124 -71 188 -23 35 -62 112 -86 172 -82 203 -236 493
-402 755 -38 61 -47 82 -34 79 10 -3 80 -22 155 -41 296 -77 382 -118 491
-232 92 -96 120 -109 217 -101 l67 6 7 -82 c8 -95 28 -144 72 -172 28 -18 33
-29 44 -90 17 -103 59 -187 111 -224 55 -40 163 -72 265 -79 102 -6 150 3 180
33 43 43 32 111 -48 290 -75 168 -155 268 -257 320 -67 33 -156 143 -166 203
-10 63 -61 156 -100 187 -54 40 -128 70 -255 100 -63 14 -205 62 -315 105
-219 85 -304 116 -590 214 -185 64 -191 67 -237 116 -27 29 -48 61 -48 73 0
79 -142 247 -255 302 -68 34 -156 44 -223 26 -72 -20 -161 -89 -226 -177 -80
-106 -174 -197 -314 -301 -273 -202 -310 -231 -378 -298 -39 -38 -90 -97 -114
-129 l-43 -59 -30 59 c-34 69 -76 116 -134 150 -36 22 -43 31 -53 77 -19 88
-68 225 -124 341 -50 106 -104 199 -286 495 -101 166 -102 167 -59 142 19 -11
54 -25 79 -31 28 -8 62 -28 91 -55 88 -82 158 -98 209 -46 18 18 44 31 71 35
81 13 190 97 244 190 36 62 63 165 75 293 5 57 16 115 23 131 40 78 21 140
-63 211 -61 52 -88 90 -181 261 -159 291 -196 401 -207 610 l-8 136 -52 106
c-28 59 -81 146 -116 193 l-65 85 48 0 c58 0 94 25 111 74 6 18 19 41 30 51
80 72 -21 235 -196 316 -47 22 -82 44 -79 49 9 14 -46 45 -160 89 -169 66
-360 104 -580 116 -237 13 -484 38 -555 56 -85 22 -179 64 -244 108 -45 32
-62 38 -51 22z m1437 -2680 l66 -42 -5 -82 c-3 -45 -7 -83 -8 -85 -1 -2 -33
50 -71 115 -37 65 -75 129 -83 143 l-16 25 25 -16 c14 -9 55 -35 92 -58z
m-2815 -443 c-3 -7 -5 -2 -5 12 0 14 2 19 5 13 2 -7 2 -19 0 -25z"/>
</g>
</svg>
